<svg width="20" height="20" viewBox="0 0 20 20" fill="none" xmlns="http://www.w3.org/2000/svg">
<path d="M1.81818 0C0.813636 0 0 0.813636 0 1.81818V18.1818C0 19.1864 0.813636 20 1.81818 20H18.1818C19.1864 20 20 19.1864 20 18.1818V1.81818C20 0.813636 19.1864 0 18.1818 0H1.81818ZM4.89169 2.0206H5.93572L6.35298 3.97727C6.45935 4.45909 6.53822 4.86952 6.58913 5.20952H6.62109C6.65655 4.96588 6.73452 4.55801 6.85724 3.98438L7.29048 2.0206H8.33452L7.12358 6.337V8.40732H6.08665V6.337L4.89169 2.0206ZM9.54013 3.65057C9.88558 3.65057 10.1611 3.72091 10.3693 3.86364C10.5775 4.00545 10.7293 4.22857 10.8256 4.52947C10.922 4.83129 10.9712 5.23327 10.9712 5.73509V6.41335C10.9712 6.91154 10.9228 7.31004 10.8292 7.61186C10.7356 7.91368 10.5829 8.13592 10.3729 8.27592C10.1629 8.41592 9.87705 8.48367 9.51705 8.48367C9.14705 8.48367 8.85615 8.41332 8.64524 8.2706C8.43433 8.12878 8.28511 7.90831 8.19602 7.60831C8.10693 7.30831 8.06286 6.91062 8.06286 6.41335V5.73509C8.06286 5.23236 8.11287 4.8296 8.21378 4.52415C8.3156 4.22142 8.47595 3.9974 8.69141 3.85831C8.90686 3.71831 9.18922 3.65057 9.54013 3.65057ZM11.5181 3.74112H12.5675V7.16797C12.5675 7.37615 12.5904 7.52455 12.6367 7.61364C12.6831 7.70273 12.7585 7.7468 12.8658 7.7468C12.9567 7.7468 13.044 7.71972 13.1286 7.66335C13.2122 7.6079 13.275 7.53665 13.315 7.45028V3.74112H14.3661V8.40909H13.5423L13.4517 7.83736H13.4286C13.2059 8.26918 12.8718 8.48544 12.4254 8.48544C12.1163 8.48544 11.8856 8.38277 11.7383 8.18004C11.591 7.97732 11.5181 7.66016 11.5181 7.22834V3.74112ZM9.51705 4.375C9.37523 4.375 9.27516 4.45128 9.21697 4.60582C9.15879 4.76128 9.12997 5.00636 9.12997 5.34091V6.7951C9.12997 7.14055 9.15706 7.38902 9.21342 7.54084C9.26979 7.69266 9.37155 7.76989 9.51882 7.76989C9.66518 7.76898 9.76781 7.69357 9.82599 7.54084C9.88418 7.38902 9.913 7.13965 9.913 6.7951V5.34091C9.913 5.00545 9.88418 4.76037 9.82599 4.60582C9.76781 4.45037 9.66432 4.375 9.51705 4.375ZM4.34304 9.29332H15.657C16.5461 9.29332 17.2727 10.02 17.2727 10.9091V16.5661C17.2727 17.4551 16.5461 18.1818 15.657 18.1818H4.34304C3.45395 18.1818 2.72727 17.4551 2.72727 16.5661V10.9091C2.72727 10.02 3.45395 9.29332 4.34304 9.29332ZM10.0408 10.9091V16.5004H10.7724L10.8629 16.1275H10.8825C10.9515 16.2611 11.0532 16.3663 11.1914 16.4435C11.3287 16.5199 11.4805 16.5589 11.6477 16.5589C11.9477 16.5589 12.1664 16.4216 12.3082 16.1452C12.4501 15.8689 12.5213 15.4363 12.5213 14.8491V14.2259H12.5195C12.5195 13.7849 12.4933 13.4398 12.4396 13.1907C12.386 12.9425 12.2995 12.7627 12.1804 12.6509C12.0613 12.5391 11.895 12.484 11.685 12.484C11.5214 12.484 11.3696 12.5307 11.2287 12.6225C11.0869 12.7143 10.9775 12.8347 10.9002 12.9847H10.8949V10.9091H10.0408ZM4.73722 11.1097V11.8217H5.6179V16.5004H6.48437V11.8217H7.36506V11.1097H4.73722ZM14.1175 12.4858C13.6766 12.4858 13.3654 12.6214 13.1836 12.8942C13.0018 13.1669 12.9102 13.5985 12.9102 14.1903V14.8775C12.9102 15.452 12.9984 15.8769 13.1747 16.1506C13.3511 16.4242 13.6572 16.5625 14.0945 16.5625C14.459 16.5625 14.7396 16.4726 14.9396 16.2926C15.1396 16.1135 15.2397 15.8404 15.2397 15.4759C15.2397 15.4159 15.2362 15.3684 15.2326 15.3338L14.4673 15.2876C14.4637 15.5276 14.4365 15.6998 14.3874 15.8026C14.3383 15.9053 14.2458 15.957 14.114 15.957C14.0158 15.957 13.9429 15.9282 13.8956 15.87C13.8483 15.8128 13.8187 15.7194 13.8033 15.593C13.7878 15.4667 13.7802 15.2776 13.7802 15.0249V14.8242H15.2628V14.1513C15.2628 13.7358 15.2297 13.4093 15.1634 13.1729C15.0961 12.9375 14.9816 12.7654 14.8189 12.6545C14.6553 12.5427 14.4221 12.4858 14.1175 12.4858ZM7.1005 12.5604V15.5043C7.1005 15.8679 7.16239 16.1368 7.28693 16.3086C7.41148 16.4795 7.60217 16.5661 7.86399 16.5661C8.24126 16.5661 8.5254 16.3829 8.71449 16.0174H8.73224L8.80859 16.5004H9.50284H9.50462V12.5604H8.61861V15.6907C8.58406 15.7634 8.53149 15.8237 8.46058 15.87C8.39058 15.9173 8.31591 15.9411 8.23864 15.9411C8.14773 15.9411 8.08506 15.9046 8.04687 15.8292C8.00778 15.7546 7.98828 15.6282 7.98828 15.4528V12.5604H7.1005ZM14.0998 13.0859C14.1943 13.0859 14.2639 13.1122 14.3093 13.1658C14.3548 13.2195 14.3862 13.3101 14.4016 13.4411C14.4189 13.572 14.4265 13.7654 14.4265 14.0181V14.3004H13.7784V14.0181C13.7784 13.7608 13.786 13.5674 13.8015 13.4411C13.816 13.3147 13.8448 13.2248 13.8903 13.1694C13.9357 13.1148 14.0052 13.0859 14.0998 13.0859ZM11.2855 13.1143C11.3764 13.1143 11.4459 13.1491 11.495 13.2191C11.5432 13.2891 11.5789 13.4087 11.598 13.576C11.6171 13.7433 11.6264 13.9807 11.6264 14.2898V14.7976C11.6264 15.0849 11.6163 15.3105 11.5927 15.4723C11.569 15.6359 11.5283 15.7521 11.4719 15.8203C11.4156 15.8885 11.3428 15.9233 11.2482 15.9233C11.1746 15.9233 11.1076 15.9037 11.0458 15.87C10.984 15.8355 10.9331 15.7846 10.8949 15.7156V13.4801C10.9249 13.3738 10.9766 13.2846 11.0494 13.2156C11.1221 13.1465 11.2001 13.1143 11.2855 13.1143Z" fill="white"/>
</svg>
