<svg width="18" height="19" viewBox="0 0 18 19" fill="none" xmlns="http://www.w3.org/2000/svg">
<path d="M14.7382 18.998C14.7318 18.998 14.7254 18.998 14.719 18.998C11.6446 18.8974 8.04281 15.9172 5.5612 13.434C3.07639 10.9508 0.0962254 7.34743 0.000348646 4.28736C-0.0348059 3.21355 2.60021 1.304 2.62737 1.28482C3.31129 0.808637 4.07031 0.978019 4.38191 1.40946C4.59284 1.70189 6.59027 4.7284 6.80759 5.07195C7.03291 5.4283 6.99935 5.95881 6.71811 6.49093C6.56311 6.78655 6.04857 7.69099 5.80728 8.11284C6.06775 8.48357 6.75646 9.3928 8.17863 10.815C9.6024 12.2371 10.51 12.9275 10.8824 13.1879C11.3042 12.9466 12.2086 12.4321 12.5043 12.2771C13.0284 11.999 13.5557 11.9639 13.9153 12.1844C14.2828 12.4097 17.3013 14.4167 17.5793 14.6101C17.8126 14.7747 17.9628 15.0559 17.9932 15.3835C18.022 15.7143 17.9197 16.0642 17.7072 16.3694C17.6896 16.395 15.8024 18.998 14.7382 18.998Z" fill="white"/>
</svg>
