<svg width="246" height="23" viewBox="0 0 246 23" fill="none" xmlns="http://www.w3.org/2000/svg">
<path d="M0 12.9418C0 7.10147 4.50148 0 13.7373 0C18.3552 0 21.6343 2.44477 22.5171 6.23804L16.1238 9.02236C15.9695 8.26196 15.5482 7.58186 14.9361 7.10501C14.3241 6.62816 13.5616 6.38602 12.7865 6.42237C9.57535 6.42237 7.49923 9.33281 7.49923 12.3015C7.49923 14.6589 8.96415 15.9686 10.8656 15.9686C11.6855 15.9477 12.489 15.735 13.2117 15.3475C13.9345 14.96 14.5564 14.4085 15.0276 13.7373L19.985 17.6179C18.8539 19.1425 17.3671 20.3674 15.6542 21.1858C13.9413 22.0042 12.0542 22.3913 10.1574 22.3134C4.16193 22.3134 0 18.6947 0 12.9418Z" fill="black"/>
<path d="M56.4237 0.310486H63.5252L66.7655 21.8768H59.1789L58.8103 18.9664H51.282L49.4193 21.8768H41.6581L56.4237 0.310486ZM58.364 13.8925L57.8013 8.73136L54.464 13.9313L58.364 13.8925Z" fill="black"/>
<path d="M73.0423 0.455994H80.1147L82.6856 7.98433L89.2535 0.455994H97.1214L91.4072 21.8768H84.2766L87.1191 11.2634L80.1438 18.8791H80.0177L77.1072 11.2634L74.2938 21.8768H67.2894L73.0423 0.455994Z" fill="black"/>
<path d="M99.4788 0.455994H106.716C110.665 0.455994 113.08 1.22241 114.671 2.81345C115.225 3.38451 115.659 4.06073 115.947 4.80221C116.236 5.54368 116.372 6.33539 116.35 7.1306C116.35 12.4858 112.314 16.0656 105.523 16.0656H102.447L100.895 21.8865H93.7355L99.4788 0.455994ZM105.115 10.953C107.841 10.953 109.093 9.73059 109.093 8.11045C109.09 7.63765 108.902 7.18479 108.569 6.84926C107.966 6.36783 107.205 6.12909 106.435 6.17986H105.086L103.806 10.953H105.115Z" fill="black"/>
<path d="M114.05 18.4328L118.154 13.5821C120.132 15.4042 122.686 16.4752 125.372 16.6089C126.342 16.6089 126.934 16.2791 126.934 15.6388C126.934 14.9985 126.536 14.7462 123.412 13.5821C119.435 12.1171 117.591 10.6716 117.591 7.55746C117.591 3.42463 121.385 0.0582239 127.225 0.0582239C130.689 -0.0436238 134.078 1.08359 136.791 3.2403L132.697 8.13954C130.956 6.68413 128.784 5.84505 126.517 5.75298C125.547 5.75298 124.955 5.99552 124.955 6.60671C124.955 7.2179 125.411 7.37313 128.379 8.47909C132.018 9.81789 134.346 11.3895 134.346 14.6298C134.346 18.9373 130.795 22.3037 124.644 22.3037C120.755 22.3761 116.977 20.9959 114.05 18.4328Z" fill="white"/>
<path d="M135.471 12.9418C135.471 7.12087 139.973 0 149.209 0C153.826 0 157.106 2.44477 157.94 6.23804L151.595 9.02236C151.443 8.26103 151.022 7.57976 150.409 7.10257C149.797 6.62538 149.033 6.384 148.258 6.42237C145.047 6.42237 142.971 9.33281 142.971 12.3015C142.971 14.6589 144.435 15.9686 146.337 15.9686C147.157 15.9477 147.96 15.735 148.683 15.3475C149.406 14.96 150.028 14.4085 150.499 13.7373L155.456 17.6179C154.325 19.1425 152.838 20.3674 151.125 21.1858C149.413 22.0042 147.526 22.3913 145.629 22.3134C139.633 22.3134 135.471 18.6947 135.471 12.9418Z" fill="white"/>
<path d="M161.326 0.455994H168.485L166.438 8.01343H172.987L175.034 0.455994H182.193L176.44 21.8768H169.281L171.338 14.1933H164.789L162.732 21.8768H155.573L161.326 0.455994Z" fill="white"/>
<path d="M181.01 12.6119C181.01 9.26702 182.339 6.05913 184.704 3.69394C187.069 1.32875 190.277 0 193.622 0C199.928 0 204.293 4.22014 204.293 9.70146C204.293 11.3577 203.967 12.9977 203.333 14.5278C202.7 16.058 201.771 17.4483 200.6 18.6194C198.234 20.9846 195.026 22.3134 191.682 22.3134C185.347 22.3134 181.01 18.0835 181.01 12.6119ZM197.066 10.3806C197.108 9.84812 197.036 9.31279 196.854 8.81049C196.673 8.3082 196.386 7.85057 196.013 7.46832C195.64 7.08607 195.189 6.78805 194.692 6.59426C194.194 6.40048 193.66 6.3154 193.127 6.34476C190.129 6.34476 188.199 9.2552 188.199 11.9716C188.156 12.5053 188.229 13.0419 188.411 13.5454C188.593 14.0489 188.881 14.5075 189.255 14.8907C189.629 15.2738 190.08 15.5726 190.579 15.7668C191.078 15.9611 191.613 16.0465 192.147 16.0171C195.145 16.0074 197.066 13.0679 197.066 10.3709V10.3806Z" fill="white"/>
<path d="M205.332 12.6119C205.332 9.26702 206.66 6.05913 209.025 3.69394C211.391 1.32875 214.599 0 217.943 0C224.24 0 228.615 4.22014 228.615 9.70146C228.615 11.3577 228.289 12.9977 227.655 14.5278C227.021 16.058 226.092 17.4483 224.921 18.6194C222.556 20.9846 219.348 22.3134 216.003 22.3134C209.678 22.3134 205.332 18.0835 205.332 12.6119ZM221.397 10.3806C221.44 9.84726 221.367 9.31105 221.185 8.80804C221.003 8.30503 220.715 7.84689 220.341 7.46448C219.967 7.08207 219.515 6.78426 219.016 6.59112C218.517 6.39797 217.983 6.31396 217.449 6.34476C214.451 6.34476 212.52 9.2552 212.52 11.9716C212.478 12.5053 212.55 13.0419 212.732 13.5454C212.915 14.0489 213.202 14.5075 213.576 14.8907C213.95 15.2738 214.402 15.5726 214.901 15.7668C215.4 15.9611 215.934 16.0465 216.469 16.0171C219.467 16.0074 221.397 13.0679 221.397 10.3709V10.3806Z" fill="white"/>
<path d="M233.184 0.455994H240.344L236.24 15.7552H246L244.351 21.8768H227.431L233.184 0.455994Z" fill="white"/>
<path d="M36.041 14.6396H43.0842L41.2021 21.8769H34.1492L36.041 14.6396Z" fill="black"/>
<path d="M39.7857 0.300781H46.829L44.9372 7.53807H37.8939L39.7857 0.300781Z" fill="black"/>
<path d="M30.8701 7.47015H37.9133L36.0215 14.7074H28.9783L30.8701 7.47015Z" fill="black"/>
<path d="M22.0223 14.6396H29.0656L27.1738 21.8769H20.1306L22.0223 14.6396Z" fill="black"/>
<path d="M25.7574 0.300781H32.8006L30.9186 7.53807H23.8753L25.7574 0.300781Z" fill="black"/>
<path d="M46.1596 0.300781H46.829L41.2022 21.8768H40.523L46.1596 0.300781Z" fill="black"/>
<path d="M20.8582 21.8768H20.1306L25.7574 0.300781H26.485L20.8582 21.8768Z" fill="black"/>
</svg>
