<?xml version="1.0" encoding="UTF-8" standalone="no"?>
<!DOCTYPE svg PUBLIC "-//W3C//DTD SVG 1.1//EN" "http://www.w3.org/Graphics/SVG/1.1/DTD/svg11.dtd">
<svg width="100%" height="100%" viewBox="0 0 246 23" version="1.1" xmlns="http://www.w3.org/2000/svg" xmlns:xlink="http://www.w3.org/1999/xlink" xml:space="preserve" xmlns:serif="http://www.serif.com/" style="fill-rule:evenodd;clip-rule:evenodd;stroke-linejoin:round;stroke-miterlimit:2;">
    <path d="M0,12.942C0,7.101 4.501,0 13.737,0C18.355,0 21.634,2.445 22.517,6.238L16.124,9.022C15.97,8.262 15.548,7.582 14.936,7.105C14.324,6.628 13.562,6.386 12.787,6.422C9.575,6.422 7.499,9.333 7.499,12.302C7.499,14.659 8.964,15.969 10.866,15.969C11.685,15.948 12.489,15.735 13.212,15.348C13.935,14.96 14.556,14.409 15.028,13.737L19.985,17.618C18.854,19.142 17.367,20.367 15.654,21.186C13.941,22.004 12.054,22.391 10.157,22.313C4.162,22.313 0,18.695 0,12.942Z" style="fill:rgb(207,51,57);fill-rule:nonzero;"/>
    <path d="M56.424,0.31L63.525,0.31L66.766,21.877L59.179,21.877L58.81,18.966L51.282,18.966L49.419,21.877L41.658,21.877L56.424,0.31ZM58.364,13.893L57.801,8.731L54.464,13.931L58.364,13.893Z" style="fill:rgb(207,51,57);fill-rule:nonzero;"/>
    <path d="M73.042,0.456L80.115,0.456L82.686,7.984L89.254,0.456L97.121,0.456L91.407,21.877L84.277,21.877L87.119,11.263L80.144,18.879L80.018,18.879L77.107,11.263L74.294,21.877L67.289,21.877L73.042,0.456Z" style="fill:rgb(207,51,57);fill-rule:nonzero;"/>
    <path d="M99.479,0.456L106.716,0.456C110.665,0.456 113.08,1.222 114.671,2.813C115.225,3.385 115.659,4.061 115.947,4.802C116.236,5.544 116.372,6.335 116.35,7.131C116.35,12.486 112.314,16.066 105.523,16.066L102.447,16.066L100.895,21.887L93.736,21.887L99.479,0.456ZM105.115,10.953C107.841,10.953 109.093,9.731 109.093,8.11C109.09,7.638 108.902,7.185 108.569,6.849C107.966,6.368 107.205,6.129 106.435,6.18L105.086,6.18L103.806,10.953L105.115,10.953Z" style="fill:rgb(207,51,57);fill-rule:nonzero;"/>
    <path d="M114.05,18.433L118.154,13.582C120.132,15.404 122.686,16.475 125.372,16.609C126.342,16.609 126.934,16.279 126.934,15.639C126.934,14.999 126.536,14.746 123.412,13.582C119.435,12.117 117.591,10.672 117.591,7.557C117.591,3.425 121.385,0.058 127.225,0.058C130.689,-0.044 134.078,1.084 136.791,3.24L132.697,8.14C130.956,6.684 128.784,5.845 126.517,5.753C125.547,5.753 124.955,5.996 124.955,6.607C124.955,7.218 125.411,7.373 128.379,8.479C132.018,9.818 134.346,11.39 134.346,14.63C134.346,18.937 130.795,22.304 124.644,22.304C120.755,22.376 116.977,20.996 114.05,18.433Z" style="fill-rule:nonzero;"/>
    <path d="M135.471,12.942C135.471,7.121 139.973,0 149.209,0C153.826,0 157.106,2.445 157.94,6.238L151.595,9.022C151.443,8.261 151.022,7.58 150.409,7.103C149.797,6.625 149.033,6.384 148.258,6.422C145.047,6.422 142.971,9.333 142.971,12.302C142.971,14.659 144.435,15.969 146.337,15.969C147.157,15.948 147.96,15.735 148.683,15.348C149.406,14.96 150.028,14.409 150.499,13.737L155.456,17.618C154.325,19.142 152.838,20.367 151.125,21.186C149.413,22.004 147.526,22.391 145.629,22.313C139.633,22.313 135.471,18.695 135.471,12.942Z" style="fill-rule:nonzero;"/>
    <path d="M161.326,0.456L168.485,0.456L166.438,8.013L172.987,8.013L175.034,0.456L182.193,0.456L176.44,21.877L169.281,21.877L171.338,14.193L164.789,14.193L162.732,21.877L155.573,21.877L161.326,0.456Z" style="fill-rule:nonzero;"/>
    <path d="M181.01,12.612C181.01,9.267 182.339,6.059 184.704,3.694C187.069,1.329 190.277,0 193.622,0C199.928,0 204.293,4.22 204.293,9.701C204.293,11.358 203.967,12.998 203.333,14.528C202.7,16.058 201.771,17.448 200.6,18.619C198.234,20.985 195.026,22.313 191.682,22.313C185.347,22.313 181.01,18.084 181.01,12.612ZM197.066,10.381C197.108,9.848 197.036,9.313 196.854,8.81C196.673,8.308 196.386,7.851 196.013,7.468C195.64,7.086 195.189,6.788 194.692,6.594C194.194,6.4 193.66,6.315 193.127,6.345C190.129,6.345 188.199,9.255 188.199,11.972C188.156,12.505 188.229,13.042 188.411,13.545C188.593,14.049 188.881,14.508 189.255,14.891C189.629,15.274 190.08,15.573 190.579,15.767C191.078,15.961 191.613,16.047 192.147,16.017C195.145,16.007 197.066,13.068 197.066,10.371L197.066,10.381Z" style="fill-rule:nonzero;"/>
    <path d="M205.332,12.612C205.332,9.267 206.66,6.059 209.025,3.694C211.391,1.329 214.599,0 217.943,0C224.24,0 228.615,4.22 228.615,9.701C228.615,11.358 228.289,12.998 227.655,14.528C227.021,16.058 226.092,17.448 224.921,18.619C222.556,20.985 219.348,22.313 216.003,22.313C209.678,22.313 205.332,18.084 205.332,12.612ZM221.397,10.381C221.44,9.847 221.367,9.311 221.185,8.808C221.003,8.305 220.715,7.847 220.341,7.464C219.967,7.082 219.515,6.784 219.016,6.591C218.517,6.398 217.983,6.314 217.449,6.345C214.451,6.345 212.52,9.255 212.52,11.972C212.478,12.505 212.55,13.042 212.732,13.545C212.915,14.049 213.202,14.508 213.576,14.891C213.95,15.274 214.402,15.573 214.901,15.767C215.4,15.961 215.934,16.047 216.469,16.017C219.467,16.007 221.397,13.068 221.397,10.371L221.397,10.381Z" style="fill-rule:nonzero;"/>
    <path d="M233.184,0.456L240.344,0.456L236.24,15.755L246,15.755L244.351,21.877L227.431,21.877L233.184,0.456Z" style="fill-rule:nonzero;"/>
    <path d="M36.041,14.64L43.084,14.64L41.202,21.877L34.149,21.877L36.041,14.64Z" style="fill:rgb(207,51,57);fill-rule:nonzero;"/>
    <path d="M39.786,0.301L46.829,0.301L44.937,7.538L37.894,7.538L39.786,0.301Z" style="fill:rgb(207,51,57);fill-rule:nonzero;"/>
    <path d="M30.87,7.47L37.913,7.47L36.022,14.707L28.978,14.707L30.87,7.47Z" style="fill:rgb(207,51,57);fill-rule:nonzero;"/>
    <path d="M22.022,14.64L29.066,14.64L27.174,21.877L20.131,21.877L22.022,14.64Z" style="fill:rgb(207,51,57);fill-rule:nonzero;"/>
    <path d="M25.757,0.301L32.801,0.301L30.919,7.538L23.875,7.538L25.757,0.301Z" style="fill:rgb(207,51,57);fill-rule:nonzero;"/>
    <path d="M46.16,0.301L46.829,0.301L41.202,21.877L40.523,21.877L46.16,0.301Z" style="fill:rgb(207,51,57);fill-rule:nonzero;"/>
    <path d="M20.858,21.877L20.131,21.877L25.757,0.301L26.485,0.301L20.858,21.877Z" style="fill:rgb(207,51,57);fill-rule:nonzero;"/>
</svg>
